<?xml version="1.0" encoding="utf-8"?>
<!-- Generator: Adobe Illustrator 24.1.0, SVG Export Plug-In . SVG Version: 6.00 Build 0)  -->
<svg version="1.1" id="Layer_1" xmlns="http://www.w3.org/2000/svg" xmlns:xlink="http://www.w3.org/1999/xlink" x="0px" y="0px"
	 width="302.7px" height="261.7px" viewBox="0 0 302.7 261.7" style="enable-background:new 0 0 302.7 261.7;" xml:space="preserve"
	>
<style type="text/css">
	.st0{fill:url(#SVGID_1_);}
	.st1{fill:url(#SVGID_2_);}
	.st2{fill:#1D295B;}
	.st3{fill:#FFC530;}
</style>
<g>
	<g>
		<g>
			<g>
				<linearGradient id="SVGID_1_" gradientUnits="userSpaceOnUse" x1="208.3418" y1="75.6819" x2="101.2953" y2="75.6819">
					<stop  offset="0" style="stop-color:#FFFFFF;stop-opacity:0"/>
					<stop  offset="0.1901" style="stop-color:#F8FBFD;stop-opacity:0.1901"/>
					<stop  offset="0.3871" style="stop-color:#EBF3FA;stop-opacity:0.3871"/>
					<stop  offset="0.5872" style="stop-color:#D5E7F5;stop-opacity:0.5872"/>
					<stop  offset="0.7896" style="stop-color:#B8D9EF;stop-opacity:0.7896"/>
					<stop  offset="0.9919" style="stop-color:#91C7E7;stop-opacity:0.9919"/>
					<stop  offset="1" style="stop-color:#8FC7E7"/>
				</linearGradient>
				<path class="st0" d="M130.4,5C105,25.9,94.3,61.2,106.1,93.9c15.1,41.4,60.8,62.7,102.2,47.7l-10.8-29.1
					c-33.1,12.1-69.7-5-81.8-38.1c-9.1-24.9-2.4-49.5,14.2-67.8L130.4,5z"/>
			</g>
			<linearGradient id="SVGID_2_" gradientUnits="userSpaceOnUse" x1="93.9112" y1="75.2272" x2="200.9577" y2="75.2272">
				<stop  offset="0" style="stop-color:#FFFFFF;stop-opacity:0"/>
				<stop  offset="0.1901" style="stop-color:#F8FBFD;stop-opacity:0.1901"/>
				<stop  offset="0.3871" style="stop-color:#EBF3FA;stop-opacity:0.3871"/>
				<stop  offset="0.5872" style="stop-color:#D5E7F5;stop-opacity:0.5872"/>
				<stop  offset="0.7896" style="stop-color:#B8D9EF;stop-opacity:0.7896"/>
				<stop  offset="0.9919" style="stop-color:#91C7E7;stop-opacity:0.9919"/>
				<stop  offset="1" style="stop-color:#8FC7E7"/>
			</linearGradient>
			<path class="st1" d="M169.3,4.1c18,17.3,26.4,44.1,16.9,70.2c-12.1,33.1-48.7,50.2-81.8,38.1l-10.5,29.1
				c41.4,15.1,87.2-6.3,102.2-47.7c11.9-32.6,1.1-68-24.2-88.9L169.3,4.1z"/>
		</g>
		<g>
			<g>
				<g>
					<path class="st2" d="M175.1,5.8c4.6,0.2,10.2-0.2,15-2.7l-1.4-2.6c-8.7,4.6-21.3,1.3-21.4,1.3L160.7,0l5.3,4.3
						c20.3,16.8,28,44.7,18.9,69.4c-5.7,15.6-17.1,28.1-32.2,35.2c-14.5,6.8-30.8,7.7-46,2.7l1.3,3.5c6,1.8,12.2,2.7,18.4,2.7
						c9.4,0,18.8-2.1,27.5-6.2c15.8-7.4,27.8-20.5,33.8-36.8c5.3-14.6,5.1-30.2,0.2-44.1c7.4,16.4,8.4,35.3,2,52.9
						c-11.7,32-44.3,50.4-76.8,45.4l1.1,3.2c3.2,0.4,6.3,0.6,9.5,0.6c29.9,0,58.1-18.5,68.9-48.2c6-16.5,5.7-34.1,0.1-49.9
						c8.1,18.2,9.2,39.2,2.1,58.7c-7.2,19.6-21.5,35.3-40.5,44.2c-11.3,5.3-23.4,7.7-35.4,7.3l1.1,3c0.4,0,0.9,0,1.3,0
						c11.7,0,23.4-2.6,34.3-7.7c19.7-9.2,34.6-25.4,42-45.8C208.9,63,199.9,27.9,175.1,5.8z"/>
				</g>
			</g>
			<g>
				<g>
					<path class="st2" d="M182.1,147.8l1.1-3c-12,0.3-24-2.1-35.2-7.3c-18.9-8.8-33.3-24.5-40.5-44.2c-7.1-19.5-6-40.5,2.1-58.7
						c-5.7,15.8-5.9,33.4,0.1,49.9c6.7,18.4,20.1,33.1,37.9,41.3c9.8,4.6,20.4,6.9,30.9,6.9c3.1,0,6.2-0.2,9.4-0.6l1.2-3.2
						c-32.4,4.9-64.9-13.5-76.5-45.5c-6.4-17.6-5.4-36.6,2-52.9c-5,14-5.1,29.6,0.2,44.1c6,16.4,18,29.5,33.8,36.8
						c8.8,4.1,18.1,6.2,27.5,6.2c6.1,0,12.2-0.9,18.1-2.6l1.3-3.5c-15.1,4.9-31.2,4-45.7-2.7c-15.1-7-26.5-19.5-32.2-35.2
						c-9-24.8-1.4-52.7,18.9-69.4l5.3-4.3L135,1.8c-0.1,0-12.7,3.3-21.4-1.3l-1.4,2.6c4.8,2.5,10.4,3,15,2.7
						c-24.8,22-33.8,57.2-22.4,88.5c7.4,20.4,22.3,36.7,42,45.8c10.9,5.1,22.6,7.7,34.3,7.7C181.4,147.9,181.8,147.8,182.1,147.8z"
						/>
				</g>
			</g>
		</g>
		<g>
			<g>
				<path class="st2" d="M25.5,172.2c0-1.9,0-2.2-2.7-2.8v-1.2h2.8c4.9,0,6.1-0.2,6.1-0.2l0.2,0.2c0,0-1.3,1.6-1.3,4.9v11.6
					c0,5.3,3.6,7.6,7.2,7.6c3.6,0,7.1-2.5,7.1-7.3v-12.6c0-1.7,0-2.6-2.9-2.9v-1.3h8l0.2,0.7c0,0-2.9,0.9-2.9,4.1v11.7
					c0,6.4-4.7,9.7-10.7,9.7c-5.2,0-11.1-2.5-11.1-9.5V172.2z"/>
				<path class="st2" d="M55.6,192.8c1.6-0.2,2.6-1.1,2.6-2.4v-18.1c0-1.9-0.2-2.2-3-2.8v-1.2h10.9c4.6,0,9.8,1.6,9.8,6.9
					c0,5.3-5.1,8.8-10.1,8.3V182c3-0.3,4.4-2.5,4.4-5.5c0-4-2.5-6.2-5.5-6.2h-0.9l-0.5,0.5v19.7c0,1.1-0.2,2-0.2,2l3.7,0.3l-0.2,1.3
					l-11.1,0.2V192.8z"/>
				<path class="st2" d="M81.2,192.8c1.6-0.2,2.6-1.1,2.6-2.4v-18.1c0-1.9-0.2-2.2-3-2.8v-1.2h10.9c4.6,0,9.8,1.6,9.8,6.9
					c0,5.3-5.1,8.8-10.1,8.3V182c3-0.3,4.4-2.5,4.4-5.5c0-4-2.5-6.2-5.5-6.2h-0.9l-0.5,0.5v19.7c0,1.1-0.2,2-0.2,2l3.7,0.3l-0.2,1.3
					l-11.1,0.2V192.8z"/>
				<path class="st2" d="M106.8,192.8c1.6-0.2,2.6-1,2.6-2.4v-18.1c0-1.9-0.2-2.2-3-2.8v-1.2h16.9c1.6,0,3-0.2,3-0.2l-1.2,6.9h-1.5
					c0.2-4-1.1-4.7-4.2-4.7h-4.3l-0.5,0.5v9.2h6.5l0.3-2.2l1.6-0.2v7.4h-2v-2.9h-5.9l-0.5,0.5v7.5c0,1.2-0.2,2.2-0.2,2.2h5.4
					c3.3,0,3.8-0.5,5.7-4.6h1.5l-1.4,6.6h-12.2c-2.6,0-6.6,0.1-6.6,0.1V192.8z"/>
				<path class="st2" d="M132.2,192.8c1.6-0.2,2.6-1.1,2.6-2.4v-18.1c0-1.9-0.2-2.2-3-2.8v-1.2h11c6.8,0,9.5,3,9.5,6.2
					c0,3.2-2.8,5.4-4.8,6.7v0.7l5.6,8.5c1.5,2.2,2.2,2.3,2.9,2.4l0.4,0l-0.2,1.4h-7.4l-0.2-0.2c0,0-0.5-1.7-2.2-4.2l-4.4-6.6h-1.7
					l-0.5,0.5v6.8c0,1.1-0.2,2-0.2,2l3.5,0.3l-0.2,1.3l-10.9,0.2V192.8z M142.8,181.1c1.7,0,3.7-1.8,3.7-5.4c0-3.1-1.5-5.4-5.1-5.4
					h-1l-0.5,0.5v10.4H142.8z"/>
				<path class="st2" d="M171.9,192.8c1.6-0.2,2.6-1.1,2.6-2.5v-18c0-1.9,0-2.2-2.7-2.8v-1.2h2.8c4.8,0,6.1-0.2,6.1-0.2l0.2,0.2
					c0,0-1.3,1.7-1.3,4.9v17.1c0,1.2-0.2,2.1-0.2,2.1l3.3,0.3l-0.2,1.3l-10.7,0.2V192.8z"/>
				<path class="st2" d="M202.7,167.8c9.3,0,13.6,6.2,13.6,12.5c0,6.9-5.2,14.3-14.8,14.3c-9,0-13.5-6.4-13.5-13
					C187.9,174.8,192.9,167.8,202.7,167.8z M202.4,192.6c5.4,0,8.1-5.6,8.1-11.3c0-5.7-2.8-11.6-8.6-11.6c-5.5,0-8.2,5.2-8.2,10.7
					C193.6,186.3,196.7,192.6,202.4,192.6z"/>
				<path class="st2" d="M237.7,176.9l-5.6,17.6l-2.2-0.5l-8.9-22.4c-0.7-1.7-2.1-2.1-2.1-2.1v-1.2h2.2c2.3,0,5.5-0.2,5.5-0.2
					l0.2,0.2c-0.5,0.9-0.7,2.5-0.2,3.6l5,13.1c0.3,0.7,0.5,1.7,0.7,2.4l4.3-13.8l-0.7-2.1c-0.6-1.7-2.1-2.1-2.1-2.1v-1.2h2.2
					c2.3,0,5.5-0.2,5.5-0.2l0.2,0.2c-0.5,0.9-0.6,2.4-0.2,3.6l4.5,13.2c0.2,0.7,0.5,1.7,0.6,2.4l4.7-14.7c0.5-1.7,0.3-2.8-1.8-3.4
					v-1.2h6.4l0.2,0.7c0,0-1.6,0.7-2.6,4l-6.8,21.5l-2.3-0.5L237.7,176.9z"/>
				<path class="st2" d="M254,192.8c1.5-0.2,2.2-1,2.6-1.8l9-22.5l2.4-0.5l8.5,22.1c0.7,1.7,1.2,2.7,2.7,2.9l-0.2,1.2h-1.6
					c-1.8,0-7.6,0.2-7.6,0.2v-1.5c1,0,2-0.4,1.6-1.6l-1.8-5h-8.3l-0.7,0.5l-2.2,5.7l3.3,0.4l-0.2,1.3H254V192.8z M265.4,174.3
					l-3.8,9.8h7.2l-2.4-6.8C266.1,176.4,265.7,175,265.4,174.3z"/>
			</g>
			<g>
				<g>
					<rect x="35.7" y="211.4" class="st3" width="39.1" height="3.1"/>
					<rect x="227.2" y="211.4" class="st3" width="39.1" height="3.1"/>
				</g>
				<g>
					<path class="st2" d="M83.3,208.8c0-0.9,0-1.1-1.3-1.4v-0.6h1.4c2.4,0,3.1-0.1,3.1-0.1l0.1,0.1c0,0-0.6,0.8-0.6,2.4v5.8
						c0,2.6,1.8,3.8,3.6,3.8c1.8,0,3.5-1.3,3.5-3.7v-6.3c0-0.9,0-1.3-1.5-1.5v-0.6h4l0.1,0.4c0,0-1.4,0.5-1.4,2.1v5.9
						c0,3.2-2.4,4.8-5.4,4.8c-2.6,0-5.5-1.2-5.5-4.8V208.8z"/>
					<path class="st2" d="M99.8,219c0.9-0.1,1.4-0.5,1.4-1.2v-8.3c0-1.2-0.3-1.7-1.6-2.2v-0.6h0.6c0.9,0,2.5-0.1,2.5-0.1
						s0.2,0.5,0.8,1l6.8,7.2c0.3,0.3,0.6,0.6,0.8,0.9v-6.9c0-0.9,0-1.3-1.6-1.5v-0.6h3.9l0.1,0.4c0,0-1.3,0.3-1.3,2v10.7h-0.8
						l-8.3-8.8c-0.3-0.3-0.6-0.7-0.8-0.9v7.8c0,0.6-0.1,1-0.1,1l1.7,0.1l-0.1,0.6l-4.1,0.1V219z"/>
					<path class="st2" d="M117.9,219c0.8-0.1,1.3-0.6,1.3-1.3v-9c0-0.9,0-1.1-1.3-1.4v-0.6h1.4c2.4,0,3.1-0.1,3.1-0.1l0.1,0.1
						c0,0-0.6,0.8-0.6,2.4v8.6c0,0.6-0.1,1-0.1,1l1.6,0.2l-0.1,0.6l-5.4,0.1V219z"/>
					<path class="st2" d="M127.7,208.4c-0.3-0.9-1.1-1.1-1.1-1.1v-0.6h1.1c1.5,0,2.8-0.1,2.8-0.1l0.1,0.1c-0.2,0.5-0.3,1.2-0.1,1.8
						l2.5,6.7c0.1,0.3,0.3,0.9,0.4,1.2l3-7.4c0.3-0.9,0.2-1.4-0.9-1.7v-0.6h3.2l0.1,0.4c0,0-0.7,0.4-1.3,2l-4.4,10.8l-1-0.2
						L127.7,208.4z"/>
					<path class="st2" d="M142.5,219c0.8-0.1,1.3-0.5,1.3-1.2v-9.1c0-0.9-0.1-1.1-1.5-1.4v-0.6h8.4c0.8,0,1.5-0.1,1.5-0.1l-0.6,3.4
						h-0.8c0.1-2-0.5-2.3-2.1-2.3h-2.2l-0.2,0.2v4.6h3.2l0.2-1.1l0.8-0.1v3.7h-1v-1.5h-3l-0.2,0.2v3.8c0,0.6-0.1,1.1-0.1,1.1h2.7
						c1.7,0,1.9-0.3,2.9-2.3h0.8l-0.7,3.3h-6.1c-1.3,0-3.3,0.1-3.3,0.1V219z"/>
					<path class="st2" d="M157,219c0.8-0.1,1.3-0.5,1.3-1.2v-9.1c0-0.9-0.1-1.1-1.5-1.4v-0.6h5.5c3.4,0,4.7,1.5,4.7,3.1
						c0,1.6-1.4,2.7-2.4,3.3v0.3l2.8,4.2c0.8,1.1,1.1,1.1,1.5,1.2l0.2,0l-0.1,0.7h-3.7l-0.1-0.1c0,0-0.3-0.8-1.1-2.1l-2.2-3.3h-0.8
						l-0.2,0.2v3.4c0,0.6-0.1,1-0.1,1l1.7,0.2l-0.1,0.6l-5.5,0.1V219z M162.3,213.2c0.9,0,1.9-0.9,1.9-2.7c0-1.6-0.8-2.7-2.6-2.7
						h-0.5l-0.2,0.2v5.2H162.3z"/>
					<path class="st2" d="M173.1,215.8h0.8c0,2.5,1.6,3.2,2.8,3.2c1,0,2.1-0.5,2.1-1.7c0-3-6-2.9-6-7.1c0-2.1,1.5-3.7,4.6-3.7
						c1.1,0,2.4,0.2,3.5,0.4l-0.6,3.2h-0.8c0-1.5-0.5-2.6-2.2-2.6c-1.3,0-2.1,0.7-2.1,1.7c0,3.1,6,2.7,6,7c0,2.5-2,3.7-4.5,3.7
						c-1.7,0-4-0.5-4.1-2C172.5,217.7,172.5,217.3,173.1,215.8z"/>
					<path class="st2" d="M185.6,219c0.8-0.1,1.3-0.6,1.3-1.3v-9c0-0.9,0-1.1-1.3-1.4v-0.6h1.4c2.4,0,3.1-0.1,3.1-0.1l0.1,0.1
						c0,0-0.6,0.8-0.6,2.4v8.6c0,0.6-0.1,1-0.1,1l1.6,0.2l-0.1,0.6l-5.4,0.1V219z"/>
					<path class="st2" d="M198.1,219c0.8-0.1,1.3-0.6,1.3-1.3v-10h-1.7c-1.2,0-1.8,0.4-2.6,2.3h-0.8l0.6-3.5c0,0,0.5,0.1,1.3,0.1
						h9.5c0.8,0,1.4-0.1,1.4-0.1l-0.6,3.5h-0.8c0-2-0.6-2.3-2.1-2.3h-1.5L202,208v9.8c0,0.6-0.1,1-0.1,1l1.9,0.2l-0.1,0.6l-5.7,0.1
						V219z"/>
					<path class="st2" d="M213.7,219c0.8-0.1,1.3-0.6,1.3-1.3V214l-3.6-5.8c-0.5-0.8-1-0.9-1-0.9v-0.6h1c1.7,0,2.8-0.1,2.8-0.1
						l0.1,0.1c0,0-0.3,0.8,0,1.4l2.1,3.6c0.2,0.3,0.4,0.7,0.5,1.1l2.6-4.3c0.3-0.5,0.2-1-0.8-1.2v-0.6h3.3l0.1,0.4
						c0,0-0.6,0.2-1.2,1.1l-3.4,5.5v4c0,0.6-0.1,1-0.1,1l1.6,0.2l-0.1,0.6l-5.4,0.1V219z"/>
				</g>
			</g>
		</g>
	</g>
	<g>
		<path class="st2" d="M2.4,251.8v3h3.9v1.8H2.4v3h5v1.9H0v-11.6h7.4v1.9H2.4z"/>
		<path class="st2" d="M23.6,255.7c0,0.8-0.1,1.6-0.4,2.3c-0.3,0.7-0.7,1.3-1.2,1.8s-1.1,0.9-1.9,1.2c-0.7,0.3-1.5,0.4-2.4,0.4h-4.5
			v-11.6h4.5c0.9,0,1.7,0.1,2.4,0.4c0.7,0.3,1.4,0.7,1.9,1.2s0.9,1.1,1.2,1.8C23.4,254.1,23.6,254.9,23.6,255.7z M21.1,255.7
			c0-0.6-0.1-1.2-0.2-1.6s-0.4-0.9-0.7-1.2s-0.7-0.6-1.1-0.8c-0.4-0.2-0.9-0.3-1.5-0.3h-2v7.8h2c0.5,0,1-0.1,1.5-0.3
			c0.4-0.2,0.8-0.4,1.1-0.8s0.5-0.8,0.7-1.2S21.1,256.3,21.1,255.7z"/>
		<path class="st2" d="M34.1,259.6c0.4,0,0.7-0.1,1-0.2c0.3-0.1,0.6-0.3,0.8-0.6s0.4-0.5,0.5-0.9c0.1-0.3,0.2-0.7,0.2-1.2v-6.9H39
			v6.9c0,0.7-0.1,1.4-0.3,1.9c-0.2,0.6-0.6,1.1-1,1.5c-0.4,0.4-0.9,0.8-1.5,1c-0.6,0.2-1.3,0.4-2,0.4s-1.4-0.1-2-0.4
			c-0.6-0.2-1.1-0.6-1.5-1c-0.4-0.4-0.7-0.9-1-1.5c-0.2-0.6-0.3-1.2-0.3-1.9v-6.9h2.4v6.9c0,0.4,0.1,0.8,0.2,1.2
			c0.1,0.3,0.3,0.6,0.5,0.9s0.5,0.4,0.8,0.6C33.4,259.5,33.7,259.6,34.1,259.6z"/>
		<path class="st2" d="M53.2,258.7c0.1,0,0.2,0,0.3,0.1l1,1c-0.5,0.6-1.1,1.1-1.7,1.4c-0.7,0.3-1.5,0.5-2.5,0.5
			c-0.9,0-1.7-0.1-2.3-0.4c-0.7-0.3-1.3-0.7-1.8-1.2c-0.5-0.5-0.9-1.2-1.1-1.9c-0.3-0.7-0.4-1.5-0.4-2.4c0-0.6,0.1-1.1,0.2-1.6
			c0.1-0.5,0.3-1,0.5-1.4c0.2-0.4,0.5-0.8,0.9-1.2c0.3-0.4,0.7-0.7,1.1-0.9c0.4-0.2,0.9-0.4,1.4-0.6c0.5-0.1,1-0.2,1.6-0.2
			c0.4,0,0.8,0,1.2,0.1c0.4,0.1,0.7,0.2,1.1,0.3c0.3,0.1,0.6,0.3,0.9,0.5c0.3,0.2,0.5,0.4,0.8,0.6l-0.8,1.1c0,0.1-0.1,0.1-0.2,0.2
			s-0.2,0.1-0.3,0.1c-0.1,0-0.3,0-0.4-0.1c-0.1-0.1-0.3-0.2-0.5-0.3c-0.2-0.1-0.4-0.2-0.7-0.3c-0.3-0.1-0.6-0.1-1.1-0.1
			c-0.5,0-0.9,0.1-1.3,0.3c-0.4,0.2-0.8,0.4-1,0.8c-0.3,0.3-0.5,0.7-0.7,1.2c-0.2,0.5-0.2,1-0.2,1.7c0,0.6,0.1,1.2,0.3,1.7
			c0.2,0.5,0.4,0.9,0.7,1.2s0.7,0.6,1.1,0.8c0.4,0.2,0.8,0.3,1.3,0.3c0.3,0,0.5,0,0.7,0s0.4-0.1,0.6-0.1c0.2-0.1,0.4-0.1,0.5-0.2
			c0.2-0.1,0.3-0.2,0.5-0.4c0.1,0,0.1-0.1,0.2-0.1C53,258.7,53.1,258.7,53.2,258.7z"/>
		<path class="st2" d="M70,261.5h-1.9c-0.2,0-0.4,0-0.5-0.1c-0.1-0.1-0.2-0.2-0.3-0.4l-0.8-2.2h-4.6l-0.8,2.2
			c-0.1,0.1-0.1,0.3-0.3,0.4c-0.1,0.1-0.3,0.2-0.5,0.2h-1.9l4.5-11.6h2.5L70,261.5z M66,257.1l-1.3-3.6c-0.1-0.2-0.2-0.4-0.2-0.7
			c-0.1-0.2-0.2-0.5-0.2-0.8c-0.1,0.3-0.2,0.6-0.2,0.8c-0.1,0.3-0.2,0.5-0.2,0.7l-1.2,3.5H66z"/>
		<path class="st2" d="M82.1,251.9h-3.4v9.7h-2.4v-9.7H73v-1.9h9.2V251.9z"/>
		<path class="st2" d="M90,261.5h-2.4v-11.6H90V261.5z"/>
		<path class="st2" d="M107.7,255.7c0,0.8-0.1,1.6-0.4,2.4c-0.3,0.7-0.7,1.4-1.2,1.9c-0.5,0.5-1.1,0.9-1.9,1.2
			c-0.7,0.3-1.5,0.5-2.4,0.5s-1.7-0.2-2.4-0.5c-0.7-0.3-1.4-0.7-1.9-1.2c-0.5-0.5-0.9-1.2-1.2-1.9c-0.3-0.7-0.4-1.5-0.4-2.4
			c0-0.8,0.1-1.6,0.4-2.4s0.7-1.3,1.2-1.9c0.5-0.5,1.1-0.9,1.9-1.2c0.7-0.3,1.5-0.5,2.4-0.5s1.7,0.2,2.4,0.5
			c0.7,0.3,1.4,0.7,1.9,1.2c0.5,0.5,0.9,1.2,1.2,1.9S107.7,254.9,107.7,255.7z M105.2,255.7c0-0.6-0.1-1.2-0.2-1.6
			c-0.2-0.5-0.4-0.9-0.7-1.2s-0.7-0.6-1.1-0.8c-0.4-0.2-0.9-0.3-1.5-0.3c-0.5,0-1,0.1-1.5,0.3s-0.8,0.4-1.1,0.8s-0.5,0.7-0.7,1.2
			c-0.2,0.5-0.2,1-0.2,1.6c0,0.6,0.1,1.2,0.2,1.6s0.4,0.9,0.7,1.2c0.3,0.3,0.7,0.6,1.1,0.8s0.9,0.3,1.5,0.3c0.5,0,1-0.1,1.5-0.3
			c0.4-0.2,0.8-0.4,1.1-0.8c0.3-0.3,0.5-0.7,0.7-1.2C105.1,256.9,105.2,256.3,105.2,255.7z"/>
		<path class="st2" d="M123.4,249.9v11.6h-1.2c-0.2,0-0.3,0-0.5-0.1c-0.1-0.1-0.3-0.2-0.4-0.3l-5.8-7.4c0,0.2,0,0.4,0,0.6
			c0,0.2,0,0.3,0,0.5v6.7h-2.1v-11.6h1.3c0.1,0,0.2,0,0.3,0c0.1,0,0.1,0,0.2,0.1s0.1,0.1,0.2,0.1s0.1,0.1,0.2,0.2l5.8,7.4
			c0-0.2,0-0.4,0-0.6c0-0.2,0-0.4,0-0.5v-6.6H123.4z"/>
		<path class="st2" d="M141.7,249.9c0.8,0,1.4,0.1,2,0.2c0.6,0.1,1,0.4,1.4,0.6c0.3,0.3,0.6,0.6,0.8,1c0.2,0.4,0.2,0.8,0.2,1.3
			c0,0.3,0,0.5-0.1,0.8c-0.1,0.2-0.2,0.5-0.4,0.7s-0.4,0.4-0.6,0.6s-0.6,0.3-0.9,0.4c0.8,0.2,1.4,0.5,1.8,0.9c0.4,0.4,0.6,1,0.6,1.6
			c0,0.5-0.1,0.9-0.3,1.4c-0.2,0.4-0.5,0.8-0.8,1.1c-0.4,0.3-0.8,0.6-1.3,0.7c-0.5,0.2-1.1,0.3-1.8,0.3h-4.5v-11.6H141.7z
			 M140,251.7v3.1h1.6c0.3,0,0.6,0,0.9-0.1c0.3-0.1,0.5-0.1,0.7-0.3c0.2-0.1,0.3-0.3,0.4-0.5c0.1-0.2,0.1-0.4,0.1-0.7
			c0-0.3,0-0.5-0.1-0.7c-0.1-0.2-0.2-0.4-0.4-0.5c-0.2-0.1-0.4-0.2-0.6-0.3c-0.2-0.1-0.5-0.1-0.9-0.1H140z M142,259.7
			c0.4,0,0.7,0,0.9-0.1c0.2-0.1,0.4-0.2,0.6-0.4c0.1-0.2,0.3-0.3,0.3-0.5s0.1-0.4,0.1-0.6c0-0.2,0-0.4-0.1-0.6
			c-0.1-0.2-0.2-0.3-0.3-0.5c-0.2-0.1-0.4-0.2-0.6-0.3c-0.2-0.1-0.6-0.1-0.9-0.1h-2v3.2H142z"/>
		<path class="st2" d="M157,259.6c0.4,0,0.7-0.1,1-0.2c0.3-0.1,0.6-0.3,0.8-0.6c0.2-0.2,0.4-0.5,0.5-0.9c0.1-0.3,0.2-0.7,0.2-1.2
			v-6.9h2.4v6.9c0,0.7-0.1,1.4-0.3,1.9c-0.2,0.6-0.6,1.1-1,1.5c-0.4,0.4-0.9,0.8-1.5,1c-0.6,0.2-1.3,0.4-2,0.4c-0.8,0-1.4-0.1-2-0.4
			c-0.6-0.2-1.1-0.6-1.5-1c-0.4-0.4-0.7-0.9-1-1.5c-0.2-0.6-0.3-1.2-0.3-1.9v-6.9h2.4v6.9c0,0.4,0.1,0.8,0.2,1.2
			c0.1,0.3,0.3,0.6,0.5,0.9c0.2,0.2,0.5,0.4,0.8,0.6S156.6,259.6,157,259.6z"/>
		<path class="st2" d="M170.6,261.5h-2.4v-11.6h2.4V261.5z"/>
		<path class="st2" d="M183.9,259.6v2H177v-11.6h2.4v9.7H183.9z"/>
		<path class="st2" d="M196.1,251.9h-3.4v9.7h-2.4v-9.7H187v-1.9h9.2V251.9z"/>
		<path class="st2" d="M211.3,251.8v3.2h4.2v1.9h-4.2v4.6h-2.4v-11.6h7.4v1.9H211.3z"/>
		<path class="st2" d="M233.1,255.7c0,0.8-0.1,1.6-0.4,2.4c-0.3,0.7-0.7,1.4-1.2,1.9c-0.5,0.5-1.1,0.9-1.9,1.2
			c-0.7,0.3-1.5,0.5-2.4,0.5s-1.7-0.2-2.4-0.5c-0.7-0.3-1.4-0.7-1.9-1.2c-0.5-0.5-0.9-1.2-1.2-1.9c-0.3-0.7-0.4-1.5-0.4-2.4
			c0-0.8,0.1-1.6,0.4-2.4s0.7-1.3,1.2-1.9s1.1-0.9,1.9-1.2c0.7-0.3,1.5-0.5,2.4-0.5s1.7,0.2,2.4,0.5c0.7,0.3,1.4,0.7,1.9,1.2
			c0.5,0.5,0.9,1.2,1.2,1.9S233.1,254.9,233.1,255.7z M230.6,255.7c0-0.6-0.1-1.2-0.2-1.6c-0.2-0.5-0.4-0.9-0.7-1.2
			s-0.7-0.6-1.1-0.8c-0.4-0.2-0.9-0.3-1.5-0.3s-1,0.1-1.5,0.3c-0.4,0.2-0.8,0.4-1.1,0.8c-0.3,0.3-0.5,0.7-0.7,1.2
			c-0.2,0.5-0.2,1-0.2,1.6c0,0.6,0.1,1.2,0.2,1.6c0.2,0.5,0.4,0.9,0.7,1.2c0.3,0.3,0.7,0.6,1.1,0.8c0.4,0.2,0.9,0.3,1.5,0.3
			s1-0.1,1.5-0.3c0.4-0.2,0.8-0.4,1.1-0.8c0.3-0.3,0.5-0.7,0.7-1.2S230.6,256.3,230.6,255.7z"/>
		<path class="st2" d="M248.1,261.5h-2.2c-0.4,0-0.7-0.2-0.9-0.5l-2.2-3.6c-0.1-0.1-0.2-0.2-0.3-0.3c-0.1-0.1-0.3-0.1-0.5-0.1h-0.8
			v4.4h-2.4v-11.6h3.6c0.8,0,1.5,0.1,2.1,0.3c0.6,0.2,1,0.4,1.4,0.7c0.4,0.3,0.6,0.7,0.8,1.1s0.3,0.9,0.3,1.4c0,0.4-0.1,0.7-0.2,1.1
			s-0.3,0.7-0.5,0.9c-0.2,0.3-0.5,0.5-0.8,0.8c-0.3,0.2-0.7,0.4-1,0.5c0.2,0.1,0.3,0.2,0.4,0.3c0.1,0.1,0.3,0.3,0.4,0.4L248.1,261.5
			z M242.5,255.4c0.4,0,0.7,0,1-0.1c0.3-0.1,0.5-0.2,0.7-0.4c0.2-0.2,0.3-0.4,0.4-0.6c0.1-0.2,0.1-0.5,0.1-0.8c0-0.5-0.2-1-0.5-1.3
			s-0.9-0.5-1.7-0.5h-1.2v3.7H242.5z"/>
		<path class="st2" d="M267.9,259.6v2H261v-11.6h2.4v9.7H267.9z"/>
		<path class="st2" d="M275.8,261.5h-2.4v-11.6h2.4V261.5z"/>
		<path class="st2" d="M284.6,251.8v3.2h4.2v1.9h-4.2v4.6h-2.4v-11.6h7.4v1.9H284.6z"/>
		<path class="st2" d="M297.7,251.8v3h3.9v1.8h-3.9v3h5v1.9h-7.4v-11.6h7.4v1.9H297.7z"/>
	</g>
</g>
<g>
	<path class="st2" d="M275.5,172.2c0-2.1,1.7-3.8,3.7-3.8c2,0,3.7,1.7,3.7,3.8c0,2.1-1.7,3.8-3.7,3.8
		C277.2,176,275.5,174.3,275.5,172.2z M282.2,172.2c0-1.7-1.4-3.1-3-3.1c-1.6,0-3,1.4-3,3.1c0,1.7,1.3,3.2,3,3.2
		C280.8,175.4,282.2,174,282.2,172.2z M277.5,173.8c0.2,0,0.4-0.2,0.4-0.3V171c0-0.3,0-0.3-0.4-0.4v-0.3h1.6c1.1,0,1.5,0.4,1.5,0.9
		c0,0.4-0.4,0.8-0.7,1c0,0,0.1,0.2,0.3,0.5l0.5,0.7c0.2,0.3,0.4,0.3,0.6,0.4l0,0.3l-1.1,0c0,0-0.1-0.3-0.3-0.7l-0.6-0.9h-0.4v0.9
		c0,0.2,0,0.3,0,0.3l0.5,0.1l0,0.3l-1.7,0V173.8z M278.7,172.2h0.5c0.1,0,0.4-0.2,0.4-0.8c0-0.4-0.2-0.7-0.7-0.7h-0.2V172.2z"/>
</g>
</svg>
